<?xml version="1.0" encoding="UTF-8"?>
<svg width="24px" height="24px" viewBox="0 0 24 24" version="1.1" xmlns="http://www.w3.org/2000/svg">
    <g stroke="none" stroke-width="1" fill="none" fill-rule="evenodd">
        <path d="M12,3 L20,5 L20,16.5 C20,18.9853 17.9853,21 15.5,21 C13.0147,21 11,18.9853 11,16.5 C11,14.0147 13.0147,12 15.5,12 C16.0467,12 16.5679,12.0976 17.0469,12.2754 L17,7.1 L13,6.1 L13,16.5 C13,18.9853 10.9853,21 8.5,21 C6.0147,21 4,18.9853 4,16.5 C4,14.0147 6.0147,12 8.5,12 C9.0467,12 9.5679,12.0976 10.0469,12.2754 L10,4 L12,3 Z" fill="#4ADE80"/>
    </g>
</svg>